<?xml version="1.0" standalone="no"?>
<!DOCTYPE svg PUBLIC "-//W3C//DTD SVG 20010904//EN"
 "http://www.w3.org/TR/2001/REC-SVG-20010904/DTD/svg10.dtd">
<svg version="1.0" xmlns="http://www.w3.org/2000/svg"
 width="743.000000pt" height="743.000000pt" viewBox="0 0 743.000000 743.000000"
 preserveAspectRatio="xMidYMid meet">
<metadata>
Created by potrace 1.14, written by Peter Selinger 2001-2017
</metadata>
<g transform="translate(0.000000,743.000000) scale(0.100000,-0.100000)"
fill="#000000" stroke="none">
<path d="M4533 7264 c-17 -45 84 -181 287 -385 242 -244 538 -487 760 -626
200 -125 286 -136 232 -29 -50 95 -118 176 -306 361 -290 286 -656 571 -850
661 -82 38 -113 42 -123 18z"/>
<path d="M2753 7236 c-121 -58 -367 -230 -533 -372 -213 -183 -434 -397 -534
-519 -63 -78 -111 -167 -102 -190 18 -47 167 25 401 193 66 47 122 88 125 92
3 3 25 21 50 40 24 19 52 42 61 50 8 8 40 35 70 60 93 78 160 140 309 290 194
194 290 323 275 371 -9 28 -40 24 -122 -15z"/>
<path d="M3575 7255 c-83 -23 -98 -29 -152 -58 -58 -30 -78 -57 -69 -93 10
-39 49 -41 125 -6 93 43 135 55 214 57 86 2 163 -15 248 -56 48 -23 74 -30 93
-25 30 7 43 44 26 75 -12 23 -95 68 -175 96 -67 23 -243 28 -310 10z"/>
<path d="M4270 7125 c-22 -26 0 -131 55 -260 44 -104 162 -327 232 -440 7 -11
27 -45 44 -75 68 -115 294 -450 396 -585 5 -6 47 -62 94 -125 140 -186 294
-366 423 -496 162 -162 262 -226 301 -194 74 61 -160 549 -514 1070 -87 129
-200 289 -225 321 -12 14 -32 41 -46 59 -285 386 -632 740 -725 740 -13 0 -28
-7 -35 -15z"/>
<path d="M3045 7113 c-105 -56 -364 -322 -568 -583 -425 -544 -804 -1164 -891
-1459 -20 -67 -20 -101 -2 -126 98 -135 885 803 1321 1575 50 88 165 314 165
324 0 3 11 29 24 58 13 29 30 81 36 116 21 102 -9 136 -85 95z"/>
<path d="M3583 7035 c-103 -28 -244 -118 -334 -212 -288 -304 -553 -865 -709
-1508 -45 -183 -99 -470 -114 -605 -4 -30 -9 -73 -12 -95 -27 -214 -39 -732
-23 -992 l6 -93 -31 0 c-18 0 -57 -4 -87 -9 -30 -6 -74 -12 -99 -15 -121 -15
-350 -83 -476 -141 -214 -99 -373 -243 -462 -420 -73 -146 -87 -233 -87 -530
1 -263 8 -366 41 -572 31 -196 115 -378 195 -422 108 -61 203 15 302 239 21
48 69 252 106 455 44 233 75 344 126 450 70 147 167 238 318 302 74 31 188 63
225 63 14 0 23 -25 46 -122 16 -68 41 -166 57 -218 16 -52 31 -102 33 -110 17
-65 102 -273 166 -405 81 -168 179 -324 274 -437 54 -65 58 -68 100 -68 l44 0
17 -52 c37 -113 146 -278 184 -278 16 0 17 -7 12 -48 -14 -106 -3 -503 15
-533 2 -3 6 -21 9 -40 19 -107 70 -250 117 -325 36 -57 101 -112 142 -119 54
-11 91 3 144 50 94 84 161 260 196 513 15 101 15 451 1 485 -5 12 -3 17 8 17
36 0 145 164 177 268 l18 57 48 5 c45 5 52 9 105 73 166 198 328 510 432 833
33 100 92 314 103 367 2 12 7 37 10 55 7 35 24 40 80 23 16 -5 49 -14 74 -21
99 -28 211 -92 280 -160 77 -76 105 -117 148 -221 27 -66 37 -97 57 -182 2
-10 6 -26 9 -35 3 -9 8 -30 11 -47 5 -29 8 -48 20 -105 2 -14 7 -41 10 -60 16
-97 66 -322 83 -376 79 -242 209 -361 321 -293 118 72 196 307 228 694 15 168
9 552 -9 631 -79 347 -333 578 -778 709 -66 19 -232 53 -304 61 -28 4 -58 8
-66 10 -8 1 -27 3 -42 3 l-26 1 6 93 c9 125 8 627 -1 757 -19 271 -65 590
-117 805 -10 44 -21 91 -23 105 -12 65 -113 414 -125 435 -4 6 -7 15 -8 20
-10 53 -139 365 -210 507 -216 430 -442 685 -688 775 -57 21 -208 25 -273 8z"/>
<path d="M5580 5945 c0 -28 89 -175 147 -245 10 -12 26 -31 36 -43 142 -171
291 -306 314 -283 29 29 -179 320 -340 474 -107 103 -157 134 -157 97z"/>
<path d="M1754 5922 c-85 -62 -353 -365 -354 -399 0 -7 -3 -13 -8 -13 -10 0
-72 -114 -72 -134 0 -109 459 397 495 547 9 36 -10 36 -61 -1z"/>
</g>
</svg>
